<!-- Original pixel vector measured from the r110c MC6/MC7 reference captures; no ROM bitmap is embedded. -->
<svg xmlns="http://www.w3.org/2000/svg" width="16" height="16" viewBox="0 0 16 16" shape-rendering="crispEdges">
  <defs>
    <pattern id="gold-edge" width="4" height="2" patternUnits="userSpaceOnUse">
      <rect width="4" height="2" fill="#f8e050" />
      <path d="M0 0h1v1H0zM3 1h1v1H3z" fill="#c89818" />
    </pattern>
  </defs>
  <path d="M1 0h14v1H1zM0 1h1v14H0zM15 1h1v14h-1zM1 15h14v1H1z" fill="#302018" />
  <path d="M1 1h14v1H1zM1 2h1v12H1zM14 2h1v12h-1zM2 14h12v1H2z" fill="url(#gold-edge)" />
  <path d="M2 2h12v1H2zM2 3h1v9H2zM13 3h1v9h-1zM3 12h10v1H3z" fill="#f8f8c8" />
</svg>
